<svg xmlns="http://www.w3.org/2000/svg" viewBox="0 0 200 200" width="200" height="200">
  <defs>
    <radialGradient id="traceHead2" cx="25%" cy="25%" r="75%">
      <stop offset="0%" stop-color="#FFCC80"/>
      <stop offset="50%" stop-color="#FF9800"/>
      <stop offset="100%" stop-color="#E65100"/>
    </radialGradient>
    <radialGradient id="traceFace2" cx="30%" cy="30%" r="70%">
      <stop offset="0%" stop-color="#3E2723"/>
      <stop offset="100%" stop-color="#1A1008"/>
    </radialGradient>
    <linearGradient id="pencilGrad2" x1="0%" y1="0%" x2="100%" y2="100%">
      <stop offset="0%" stop-color="#FFCC80"/>
      <stop offset="100%" stop-color="#FF9800"/>
    </linearGradient>
    <filter id="traceGlow2" x="-30%" y="-30%" width="160%" height="160%">
      <feDropShadow dx="0" dy="4" stdDeviation="8" flood-color="#FF9800" flood-opacity="0.4"/>
    </filter>
  </defs>

  <!-- Button Background -->
  <rect x="10" y="10" width="180" height="180" rx="30" ry="30" fill="#FFFFFF" stroke="#FF9800" stroke-width="4"/>

  <!-- Antenna -->
  <line x1="100" y1="12" x2="100" y2="32" stroke="#FFE0B2" stroke-width="4" stroke-linecap="round"/>
  <circle cx="100" cy="8" r="8" fill="#FF5722" filter="url(#traceGlow2)"/>
  <circle cx="100" cy="8" r="3" fill="#FFF"/>

  <!-- Head -->
  <rect x="22" y="32" width="156" height="136" rx="42" ry="42" fill="url(#traceHead2)" filter="url(#traceGlow2)"/>
  <rect x="22" y="32" width="156" height="136" rx="42" ry="42" fill="none" stroke="#FFE0B2" stroke-width="3"/>

  <!-- Ears -->
  <ellipse cx="15" cy="100" rx="12" ry="22" fill="url(#traceHead2)" filter="url(#traceGlow2)"/>
  <ellipse cx="15" cy="100" rx="12" ry="22" fill="none" stroke="#FFE0B2" stroke-width="2"/>
  <ellipse cx="185" cy="100" rx="12" ry="22" fill="url(#traceHead2)" filter="url(#traceGlow2)"/>
  <ellipse cx="185" cy="100" rx="12" ry="22" fill="none" stroke="#FFE0B2" stroke-width="2"/>

  <!-- Face Screen -->
  <rect x="38" y="52" width="124" height="96" rx="32" ry="32" fill="url(#traceFace2)"/>
  <rect x="38" y="52" width="124" height="96" rx="32" ry="32" fill="none" stroke="#FF9800" stroke-width="2" opacity="0.5"/>

  <g transform="translate(0, 12)">
  <!-- === CENTERED PENCIL + LETTER A === -->
  <!-- Dotted guide letter A (centered) -->
  
  <text x="100" y="116" font-family="'Comic Sans MS', 'Arial Rounded MT Bold', Arial, sans-serif"
        font-size="72" font-weight="bold" fill="#FF9800" text-anchor="middle" opacity="0.95">A</text>

  <!-- Pencil (centered, positioned to appear drawing) -->
  <g transform="translate(118, 68) rotate(-35) scale(0.5)">
    <!-- Pencil body -->
    <rect x="0" y="0" width="12" height="40" rx="2" fill="url(#pencilGrad2)"/>
    <!-- Wood tip -->
    <polygon points="0,40 6,50 12,40" fill="#FFCC80"/>
    <!-- Lead -->
    <polygon points="4,46 6,50 8,46" fill="#3E2723"/>
    <!-- Eraser -->
    <rect x="0" y="-7" width="12" height="7" rx="1" fill="#FF8A80"/>
    <!-- Metal band -->
    <rect x="0" y="0" width="12" height="5" fill="#BDBDBD"/>
  </g>

  <!-- Sparkle at pencil tip -->
  <polygon points="125,62 126,65 129,66 126,67 125,70 124,67 121,66 124,65" fill="#FFD54F" opacity="0.9"/>

  <!-- Trace dots decorations -->
  <circle cx="55" cy="70" r="2" fill="#FFCC80" opacity="0.5"/>
  <circle cx="145" cy="75" r="2" fill="#FFCC80" opacity="0.5"/>
  <circle cx="150" cy="100" r="2" fill="#FFCC80" opacity="0.5"/>
  </g>

  <!-- Title Text -->
  <text x="100" y="178" font-size="16" font-family="'Fredoka One', 'Quicksand', sans-serif" font-weight="700" fill="#FF9800" text-anchor="middle" dominant-baseline="central">Tulis Huruf</text>
</svg>