<svg viewBox="0 0 24 24" width="100" height="100" xmlns="http://www.w3.org/2000/svg">
  <path d="M21 11.5a8.38 8.38 0 01-.9 3.8 8.5 8.5 0 01-7.6 4.7 8.38 8.38 0 01-3.8-.9L3 21l1.9-5.7a8.38 8.38 0 01-.9-3.8 8.5 8.5 0 014.7-7.6 8.38 8.38 0 013.8-.9h.5a8.48 8.48 0 018 8v.5z" 
        fill="#09f157" />
        
  <path d="M8 8.5a2.5 2.5 0 010 5" 
        fill="none" stroke="#FFFFFF" stroke-width="1.5" stroke-linecap="round" />
  <path d="M11 7a4.5 4.5 0 010 8" 
        fill="none" stroke="#FFFFFF" stroke-width="1.5" stroke-linecap="round" />
  <path d="M14 5.5a6.5 6.5 0 010 11" 
        fill="none" stroke="#FFFFFF" stroke-width="1.5" stroke-linecap="round" />
</svg>
